<?xml version="1.0" encoding="UTF-8"?>
<svg width="166px" height="158px" viewBox="0 0 166 158" version="1.1" xmlns="http://www.w3.org/2000/svg" xmlns:xlink="http://www.w3.org/1999/xlink">
    <!-- Generator: Sketch 49.3 (51167) - http://www.bohemiancoding.com/sketch -->
    <title>US-TX-EPS-01-0001</title>
    <desc>Created with Sketch.</desc>
    <defs></defs>
    <g id="Page-1" stroke="none" stroke-width="1" fill="none" fill-rule="evenodd">
        <g id="Desktop-HD-Notes-from-client" transform="translate(-1080.000000, -10914.000000)" fill="#FFFFFF">
            <g id="Group-8" transform="translate(188.000000, 9559.000000)">
                <g id="Field-Cards-Copy-3" transform="translate(585.000000, 944.000000)">
                    <g id="Field-Cards" transform="translate(-360.000000, 2.000000)">
                        <g id="US-TX-EPS-01-0001" transform="translate(667.000000, 409.000000)">
                            <path d="M165.984281,82.9207787 L165.809327,82.7640203 L165.471084,82.2190982 L165.49581,82.0562748 L165.616178,81.8593937 L165.645104,81.7133658 L165.678229,81.0611389 L165.612446,80.8194697 L165.38384,80.763018 L165.138438,80.8278675 L165.094117,80.8278675 L165.056793,80.8194697 L165.030201,80.8078061 L164.991944,80.7784139 L164.954621,80.7392243 L164.921496,80.6883712 L164.896303,80.609992 L164.84265,80.218096 L164.824922,80.1406499 L164.75774,80.0324119 L164.716684,79.9577651 L164.685892,79.8574584 L164.661165,79.7380234 L164.635505,79.6549788 L164.601914,79.5849973 L164.560858,79.5248133 L164.421362,79.3750531 L164.098048,79.0997928 L164.041596,79.0344768 L164.00054,78.9430344 L163.973948,78.7867425 L163.990277,78.6864358 L164.015003,78.6010585 L164.068656,78.470893 L164.105979,78.4102424 L164.26647,78.2068298 L164.272068,78.1569097 L164.251074,78.1163205 L164.07612,78.0006178 L163.882039,77.7869412 L163.755139,77.6152534 L163.713617,77.5196122 L163.676293,77.3913129 L163.643169,77.1571084 L163.609578,77.0344076 L163.568522,76.9448314 L163.515802,76.9009763 L163.445354,76.8701845 L163.296061,76.8286622 L163.237743,76.79927 L163.188756,76.7600804 L163.151433,76.6914986 L163.125773,76.6280488 L163.098247,76.5090804 L163.106644,76.4376993 L163.143035,76.3793814 L163.278799,76.2926045 L163.284397,76.2888721 L163.299793,76.2697439 L163.330585,76.2286881 L163.366975,76.1507755 L163.359044,76.0737959 L163.317988,76.0131453 L163.258737,75.971623 L163.185024,75.9431639 L162.878971,75.8479891 L162.808524,75.8111323 L162.744607,75.7700765 L162.636369,75.6795672 L162.296726,75.3044667 L162.174492,75.132779 L162.096113,74.9993477 L162.062522,74.9135038 L162.017733,74.7702752 L162.010269,74.6601711 L162.017733,74.5542658 L162.06952,74.403106 L162.122239,74.2967342 L162.139968,74.2155557 L162.159096,74.0919219 L162.18149,73.6780984 L162.200618,73.5446671 L162.258936,73.3099961 L162.263601,73.2236856 L162.251938,73.1485722 L162.222546,73.0925871 L162.185222,73.0459328 L162.139968,72.9997451 L162.096113,72.8854421 L162.047592,72.7128212 L161.961282,72.1427059 L161.928157,72.0083415 L161.60391,71.5278024 L161.5148,71.3421183 L161.462547,71.1970235 L161.40283,71.0575272 L161.290393,70.8592465 L161.118239,70.636239 L160.873304,70.3791739 L160.761334,70.287265 L160.34751,70.0773207 L160.291058,70.0404638 L160.237872,69.9952092 L160.194484,69.9401571 L159.936486,69.4624172 L159.877235,69.3915027 L159.720476,69.2692685 L159.638365,69.2230807 L159.467144,69.0975807 L159.400895,69.0182684 L159.374302,68.9641495 L159.362172,68.9324246 L159.366837,67.8327831 L159.366837,66.0921117 L159.369636,64.3463084 L159.374302,62.6014381 L159.378034,60.8542352 L159.378034,59.1037664 L159.385032,55.5967639 L159.389698,53.8402301 L159.369636,52.0463728 L159.356106,50.2548483 L159.336978,48.4609911 L159.322515,46.6620019 L159.310385,45.683195 L159.310385,45.6719979 L159.191883,45.6220779 L159.001534,45.5292358 L158.637164,45.2544421 L158.405759,45.3720109 L158.144028,45.3878733 L157.89816,45.3206912 L157.468941,45.0715573 L157.278591,45.1406056 L157.115301,45.2875666 L156.943147,45.3659458 L156.331509,45.051496 L156.119232,45.0598937 L155.988134,45.2385796 L155.899957,45.4811819 L155.768392,45.6108808 L155.515059,45.4699849 L155.247264,45.6034161 L155.015858,45.5558288 L154.926749,45.4112005 L155.083507,45.2544421 L155.083507,45.1602004 L154.766258,45.2087209 L154.459273,45.1210108 L154.228801,44.9031353 L154.135492,44.5896185 L154.011858,44.3134252 L153.796782,44.2621055 L153.730066,44.2471761 L153.409551,44.2359791 L153.177213,44.1212095 L153.177213,44.224782 L152.580038,44.0190366 L152.395287,43.9224623 L152.436343,43.8370849 L152.477399,43.7815663 L152.208204,43.7540403 L151.875092,43.8100254 L151.782716,43.6840589 L151.638088,43.5940161 L151.462202,43.538964 L151.283516,43.5016406 L151.202337,43.5091053 L151.055843,43.5800198 L150.966266,43.5940161 L150.895352,43.5646239 L150.78898,43.4311927 L150.568305,43.3192224 L150.365826,42.9646498 L150.18714,42.8825383 L150.035047,42.8718078 L149.713599,42.7701014 L148.885952,42.6250066 L148.412411,42.1584638 L148.229993,41.8314172 L148.162811,41.7376421 L148.03871,41.6485324 L147.928606,41.6004785 L147.849294,41.5076365 L147.816169,41.278564 L147.782578,41.2039171 L147.704199,41.1222721 L147.603892,41.0522907 L147.51105,41.0261643 L147.074833,41.0117015 L146.880751,40.946852 L146.679204,40.8087553 L146.277511,40.3995972 L146.056836,40.2461046 L145.661208,40.1495303 L145.591226,40.0632199 L145.541773,39.9554485 L145.474591,39.8658722 L145.329496,39.7730302 L144.49765,39.4903052 L144.290038,39.5234298 L144.050235,39.7165785 L143.976522,39.9451845 L143.958326,40.2101808 L143.886479,40.3725378 L143.740451,40.2922924 L143.666737,40.4107943 L143.570163,40.4747106 L143.45446,40.5185657 L143.319629,40.6002107 L143.177334,40.5152999 L143.088224,40.511101 L143.050901,40.6491977 L143.044369,40.767233 L143.013577,40.8320825 L142.962257,40.8689393 L142.880146,40.9095286 L142.771908,40.9244579 L141.717521,40.8908669 L141.578025,40.9095286 L141.49638,40.8059561 L141.414268,40.7392404 L141.317694,40.7061159 L141.198259,40.6930527 L141.143673,40.7280434 L141.068093,40.7905601 L141.000445,40.8166865 L140.974785,40.7495044 L140.922066,40.679523 L140.892207,40.6258705 L140.896406,40.6002107 L140.497512,40.597878 L140.337021,40.5073686 L140.456456,40.2922924 L140.358948,40.0552886 L140.217586,39.9405191 L140.057562,39.8556083 L139.892406,39.7165785 L139.72585,39.6531287 L139.584487,39.7842272 L139.416998,40.0748834 L139.319957,40.0711511 L139.109547,39.9923053 L139.069424,40.0277626 L138.770837,40.1863872 L138.643937,40.2199782 L138.503041,40.2983574 L138.375208,40.3995972 L138.294963,40.4961716 L138.163864,40.4849746 L137.973515,40.511101 L137.559691,40.4961716 L137.473847,40.592746 L137.527033,41.0219654 L137.387537,41.1199394 L137.302626,41.0858818 L137.230779,41.0145007 L137.164063,40.9095286 L137.06329,40.9431197 L136.989109,41.0145007 L136.914463,41.1199394 L136.560823,41.1787238 L136.415262,41.1414004 L135.699118,40.6869876 L135.564288,40.549824 L135.434589,40.511101 L135.276897,40.603943 L135.142999,40.7467051 L135.087481,40.8572758 L134.998371,40.8502776 L134.803356,40.9543167 L134.568219,41.1199394 L134.144598,41.3023576 L133.964979,41.3238186 L133.31975,41.3238186 L133.19425,41.3583428 L132.935319,41.5001718 L132.798622,41.5323633 L132.674521,41.6368689 L132.451514,42.1584638 L132.328346,42.3567445 L132.09041,42.5051051 L131.861804,42.5326311 L131.326212,42.4719806 L130.9945,42.5172352 L130.916121,42.6515996 L130.91892,42.8778728 L130.848472,43.1918562 L130.498565,43.4423897 L130.120666,43.0836182 L129.763294,42.5200345 L129.469838,42.1584638 L129.2375,42.1141422 L128.379994,42.1584638 L128.287152,42.1104099 L128.238165,41.9905083 L128.208773,41.8491459 L128.167717,41.7376421 L128.096803,41.6751254 L127.820609,41.5323633 L127.303213,41.3723391 L127.146455,41.2039171 L127.097935,41.147932 L127.059678,41.0812163 L127.041483,41.0061029 L127.041483,40.9244579 L127.064343,40.8502776 L127.201974,40.5670861 L127.168383,40.4770434 L127.064343,40.3697385 L126.750827,40.2428388 L126.579605,40.1966511 L126.448507,40.2022496 L126.385524,40.23864 L126.330005,40.2922924 L126.250693,40.418259 L126.087403,40.8885341 L126.052879,40.9589821 L126.011823,41.0219654 L125.967968,41.0812163 L125.911516,41.1302033 L125.818674,41.1745249 L125.687576,41.2118483 L125.444973,41.2426402 L125.308276,41.2379747 L125.200038,41.2155807 L125.133323,41.1787238 L124.803477,40.9295899 L124.675178,40.865207 L124.569272,40.8474784 L124.118592,40.9095286 L123.999157,40.8983315 L123.905848,40.8689393 L123.845198,40.8241512 L123.694504,40.6645936 L123.616125,40.5418928 L123.555008,40.3921326 L123.477096,39.9675786 L123.422043,39.814086 L123.360926,39.7417718 L123.27275,39.6727235 L123.100595,39.5990097 L122.980227,39.575216 L122.872923,39.575216 L122.440904,39.6531287 L122.369523,39.6871863 L122.302341,39.7240432 L122.209499,39.8402124 L122.220229,40.0380265 L122.191303,40.402863 L121.993489,40.8166865 L121.799407,41.0704859 L121.520415,41.1451327 L121.072067,41.0261643 L121.090262,41.2575695 L121.180772,41.361142 L121.281545,41.4357889 L121.330998,41.5878819 L121.273614,41.697986 L121.031011,41.8393485 L120.979225,42.0040381 L120.949833,42.4430549 L120.838796,42.8312186 L120.602725,43.0761535 L120.203831,43.0906164 L119.90571,42.8998004 L119.659842,42.5610902 L119.487688,42.1584638 L119.424704,41.7936273 L119.480223,41.5360956 L119.719093,41.1558632 L119.777411,40.9095286 L119.744753,40.7238445 L119.647712,40.5516902 L119.507749,40.4065954 L119.346325,40.2922924 L119.267946,40.3394132 L119.111188,40.402863 L119.041206,40.4513835 L118.984754,40.5227646 L118.942766,40.6333352 L118.719292,41.0219654 L118.648377,41.1199394 L118.313866,40.8166865 L118.16084,40.7746977 L117.95836,40.9095286 L117.933167,40.9589821 L117.862719,41.1120082 L117.82073,41.1745249 L117.759146,41.2426402 L117.624316,41.3238186 L117.56833,41.3760714 L117.470823,41.4469859 L117.329927,41.4950398 L116.507878,41.5472926 L116.307265,41.420393 L116.229819,41.0704859 L116.196228,40.7574356 L116.094055,40.5633538 L115.908371,40.4555824 L115.625646,40.402863 L114.812928,40.4588482 L114.626311,40.3473444 L114.510609,40.0632199 L114.522272,39.5005692 L114.410302,39.2472364 L113.932562,39.0125654 L113.43616,39.177255 L112.993411,39.5346268 L111.9073,40.6258705 L111.411364,40.9295899 L110.856645,41.0261643 L110.319654,40.8502776 L110.033663,40.6986512 L109.909563,40.549824 L109.939888,40.3254169 L109.962749,40.2316418 L109.987942,40.0748834 L110.074719,39.7609001 L110.074719,39.6162718 L109.987942,39.4515822 L110.066321,39.2770952 L110.043927,39.1208033 L109.950619,38.9971695 L109.823253,39.030294 L109.376771,38.8735356 L108.75347,38.7480356 L108.276663,38.5045002 L108.254269,38.0052994 L108.191286,37.6815186 L108.23934,37.2308382 L108.246804,36.8314776 L108.04899,36.6560575 L107.728475,36.7050445 L107.135033,36.9210538 L106.747802,36.9695742 L105.059384,36.754498 L104.738402,36.8431411 L104.541055,37.0619497 L104.387562,37.3381431 L104.200945,37.5919424 L104.134696,37.7309722 L103.82911,37.7850911 L103.196012,37.7888235 L103.004729,37.6740539 L102.584374,37.185117 L102.422483,37.069881 L102.33664,36.9877694 L102.136026,36.6252656 L101.994197,36.5450203 L101.581307,36.4545109 L101.427348,36.4484459 L101.14369,36.5030314 L100.297381,36.8543382 L100.149953,36.7717601 L98.5632411,36.4288511 L98.3108414,36.3346094 L97.3595605,35.7136409 L97.076369,35.6483249 L96.8757556,35.698245 L96.673276,35.7836223 L96.4054804,35.8284104 L96.1512145,35.791087 L95.6702089,35.6464587 L95.4131438,35.6077357 L94.8252998,35.6352617 L94.5411752,35.5783435 L94.3251658,35.4038565 L94.2771119,35.1589215 L94.2439874,34.3331406 L94.2887755,34.1530551 L94.3396287,34.0312874 L94.1194205,33.7672242 L93.7321899,33.4201163 L93.6127549,33.1765809 L93.5353088,32.9022537 L93.4121415,32.6736477 L93.1569426,32.5775399 L92.916673,32.5626105 L92.7888403,32.5327518 L92.6806023,32.4832983 L92.5728309,32.3750603 L92.5163792,32.2644897 L92.4837212,32.1595175 L92.4235372,32.0666755 L92.1893327,31.8991866 L91.9989832,31.8907888 L91.8711505,32.0666755 L91.7965036,32.8224749 L91.6961969,33.0534136 L91.5058474,33.1481218 L91.2086596,33.1187296 L90.9436633,33.0128244 L90.4617245,32.7454953 L89.8538192,32.6591849 L89.742782,32.6890436 L89.6312783,32.763224 L89.4857169,32.9316459 L89.3956741,33.0025604 L89.1642689,33.0767407 L88.4005383,33.0025604 L88.1663338,32.9279136 L88.0053765,32.7557593 L87.7590418,32.3801923 L85.6278741,30.3320692 L85.5037737,30.2504242 L85.223848,30.1986379 L85.1081454,30.1319223 L84.9140636,30.0717383 L84.347214,30.1543164 L84.1433348,30.1739112 L84.1433348,29.3070746 L84.1396025,27.5706021 L84.1396025,25.8285311 L84.1358701,24.0887928 L84.1358701,22.3443891 L84.1316712,20.5976527 L84.1284054,18.8443847 L84.1284054,17.0943825 L84.1204742,13.5813149 L84.1204742,11.8210487 L84.1167419,10.0612491 L84.1167419,8.29398483 L84.1088106,4.75619043 L84.1088106,2.98472725 L84.1060114,1.21046481 L84.1060114,0.435537147 L79.8623377,0.435537147 L77.4904338,0.429938632 L46.2474591,0.429938632 L45.7183995,0.441602204 L45.7258642,0.722460996 L45.7221319,1.21046481 L45.7142007,3.38408793 L45.7025371,5.55024636 L45.6922731,7.7122059 L45.6843419,9.87136619 L45.6731449,12.0300599 L45.6652137,14.1817555 L45.6554163,16.3283192 L45.6470185,18.4730166 L45.636288,20.6135152 L45.6288233,22.7502814 L45.6176263,24.8833153 L45.6101616,27.0154161 L45.5980315,29.1400522 L45.5905668,31.2651549 L45.5807694,33.3818598 L45.5733047,35.497165 L45.5611746,37.6106041 L45.5537099,39.7165785 L45.543446,41.8244191 L45.5317824,43.9224623 L45.5243177,46.0223716 L45.5126542,48.1166824 L45.505656,50.2086606 L45.4949255,52.2969063 L45.4869943,54.3814198 L45.4757973,56.4612678 L45.4687991,58.5383165 L45.4576021,60.6144322 L45.4501374,62.6835497 L45.4380073,64.7531337 L45.4314757,66.8180524 L45.4198121,68.8806383 L42.6163562,68.8806383 L39.8077682,68.8843706 L34.197124,68.8843706 L31.3941346,68.888103 L25.7820907,68.888103 L22.9786347,68.8913688 L17.3679905,68.8913688 L14.5636014,68.8955677 L8.95295719,68.8955677 L6.14530235,68.8993 L0.533258472,68.8993 L0.20994428,68.9034989 L0,68.9034989 L0.00793122836,69.1530993 L0.272461021,69.6849582 L0.339176648,69.998475 L0.376966619,70.342317 L0.470741731,70.5998487 L0.78052618,71.054728 L0.686751068,71.1629659 L0.776327294,71.3341871 L0.892496462,71.463886 L1.03712474,71.545531 L1.21161177,71.5767894 L1.37630139,71.6850273 L2.12930154,72.4669531 L2.37563617,72.5271372 L2.93455449,72.4753509 L3.40529623,72.6605684 L3.82658441,73.0785908 L4.16949341,73.6039181 L4.40696371,74.0998531 L4.73587642,75.1089853 L4.88517013,75.3683831 L5.41422972,75.999149 L5.53833011,76.222623 L5.58918328,76.3714502 L5.60831154,76.456361 L5.63023905,76.5277421 L5.70861825,76.6243164 L6.1490347,76.8781157 L6.27873361,77.0600675 L6.5693898,77.1879002 L7.09984901,77.3399932 L7.5276688,77.6012572 L7.76653874,77.6940992 L8.08425442,77.7309561 L8.29279907,77.8107349 L8.84052037,78.1909673 L9.00147765,78.3360621 L9.08638845,78.465761 L9.18016356,78.7116291 L9.2622751,78.84646 L9.50441084,78.9845567 L9.653238,79.096527 L9.653238,79.1487798 L9.86598154,79.2238932 L10.0973868,79.4063114 L11.0701286,80.5423433 L11.1601714,80.8115385 L11.2791398,80.9981556 L12.2364857,81.6214569 L12.4538947,81.7063676 L12.5462702,81.7656186 L12.8523223,82.1187915 L13.1065881,82.3128733 L13.3295956,82.4416392 L13.5204116,82.5937321 L13.6734377,82.8769236 L13.8362612,83.3957193 L13.9594285,83.605197 L14.2766776,83.7600893 L14.7086963,84.2774853 L15.7336909,85.069675 L16.2300925,85.6990413 L16.3863843,85.8329391 L16.7605517,85.9304466 L17.4836931,86.2859522 L17.5606727,86.3587329 L17.6250556,86.4445768 L17.7029683,86.5257552 L17.8373326,86.5868724 L17.901249,86.58314 L17.9525687,86.5490824 L18.0384126,86.4380452 L18.0873996,86.4189169 L18.2250297,86.4707032 L18.3034089,86.4856326 L18.3934517,86.5336865 L18.5152193,86.7478296 L18.6425855,86.7963501 L18.7732175,86.8014821 L18.8697919,86.844404 L18.9262436,86.937246 L18.9486376,87.0940044 L18.9896934,87.0706773 L19.0447455,87.1080007 L19.2094351,87.2955509 L19.295279,87.187313 L19.8835895,87.8889934 L20.122926,87.9925659 L20.357597,88.0452853 L20.6300581,88.1749842 L20.8754596,88.3681329 L21.0359503,88.5920735 L21.0695414,88.7418338 L21.0891362,88.9055903 L21.1185284,89.0632818 L21.2001734,89.1892483 L21.3266065,89.229371 L21.7259672,89.2867558 L21.8122776,89.3366759 L21.8864579,89.4999659 L22.2662238,89.9389827 L22.4159841,90.1951147 L22.4453763,90.3406761 L22.4710361,90.6471947 L22.5022945,90.791823 L22.7103726,90.9196558 L22.7588931,90.9943026 L22.7546942,91.0815461 L22.6842462,91.2467023 L22.665118,91.3442097 L22.6921774,91.5037674 L22.8186105,91.6987823 L22.8447369,91.8434106 L22.8298076,92.060353 L22.8106793,92.1541281 L22.8330734,92.2297081 L22.9413113,92.3948642 L23.0350864,92.4951709 L23.2021088,92.5968773 L23.2767556,92.6934516 L23.3061478,92.8156859 L23.3178114,92.9841078 L23.3434712,93.1301358 L23.4115865,93.1893867 L23.6490568,93.3414797 L23.8324081,93.6969853 L23.9924323,94.0958794 L24.1459249,94.3828033 L24.2392335,94.4495189 L24.4585086,94.5614892 L24.5784102,94.6809242 L24.8233452,95.1987867 L25.0034307,95.4227273 L25.0402876,95.7507069 L25.017427,96.2765007 L24.9623749,96.611945 L24.7864883,97.1330734 L24.7491648,97.4218634 L24.7841556,97.7680382 L25.017427,98.566293 L25.0211593,98.6922595 L24.9922337,98.9208655 L25.017427,99.062228 L25.066414,99.1406072 L25.2311036,99.3407541 L25.2679605,99.4093359 L25.3192802,99.5586296 L25.5586167,99.8483527 L25.7345033,100.522974 L25.7853565,100.645674 L26.0167617,100.910204 L26.2411689,101.087024 L26.4091243,101.306299 L26.5210946,101.914204 L26.744102,102.335026 L26.8266801,102.540305 L26.85234,102.74605 L26.85234,102.894877 L26.9083251,103.035773 L27.087011,103.230788 L27.6837193,103.651143 L27.8638049,103.824231 L27.9006618,103.915207 L27.9445168,104.050038 L28.0047008,104.172272 L28.08308,104.229657 L28.175922,104.26698 L29.2009167,104.919207 L29.3362141,105.117021 L29.5634205,104.997586 L29.9142607,104.986856 L30.2375749,105.079698 L30.4395879,105.336763 L30.7414411,105.560703 L30.8492125,105.609224 L30.9317906,105.683871 L31.1547981,106.197068 L31.5686216,106.664544 L31.8452815,106.895016 L32.2800994,107.111958 L32.8842724,107.781447 L33.3699435,108.050176 L34.518572,108.446737 L35.3270908,108.614226 L36.2102564,108.670211 L36.3418214,108.710801 L36.4593902,108.81484 L36.5242397,108.958068 L36.4202006,109.27765 L36.5051114,109.355096 L36.6534721,109.400817 L36.7738401,109.456336 L37.3668161,109.959269 L37.7400504,110.168747 L38.8508889,110.437942 L39.1942644,110.415082 L39.2903722,110.437942 L39.3981436,110.522386 L39.4429317,110.616162 L39.4765228,110.720201 L39.5511697,110.839636 L40.1959319,111.480199 L40.7375881,111.782519 L40.8896811,111.831972 L41.0016514,111.909418 L41.3562239,112.249062 L41.5386422,112.31951 L41.683737,112.234599 L41.6874694,112.234599 L41.7957073,112.096969 L41.7994396,112.096969 L41.9109434,112.069909 L42.064436,112.31951 L42.1390828,112.274721 L42.3247669,112.21547 L42.2468542,112.518257 L42.4288059,112.629294 L43.1874046,112.610166 L43.8755553,112.801448 L44.367758,112.876095 L44.689206,112.711405 L44.8608938,112.327441 L44.9164124,111.831972 L45.0358474,111.794649 L45.0848344,111.831972 L45.1590147,111.574907 L45.2182656,111.435411 L45.3223047,111.347234 L45.8261709,111.078506 L45.9339423,110.992662 L46.0398476,110.839636 L46.3850893,110.116028 L46.5357826,109.974665 L46.6206934,109.889288 L46.9038849,110.045113 L46.9673347,109.925678 L47.5411824,109.493659 L47.8840914,109.429743 L48.0221881,109.367226 L47.9064855,109.203003 L47.6013665,109.000524 L47.5043256,108.86336 L47.5122568,108.692605 L47.6862773,108.133221 L47.6904762,107.864492 L47.7156695,107.715198 L47.7940487,107.614891 L47.9438089,107.487059 L48.0114576,107.466064 L48.0861045,107.466064 L48.17848,107.454401 L48.2862514,107.391417 L48.2904503,107.391417 L48.2862514,107.331233 L48.189677,107.123622 L48.2018071,107.039644 L48.3212421,106.850228 L48.3240413,106.679007 L48.2759874,106.514783 L48.2465952,106.350094 L48.2722551,106.153213 L48.3352384,106.019315 L48.4215488,105.888216 L48.8227756,104.821699 L48.9352125,104.73259 L49.0070601,104.621553 L48.9426771,104.427471 L48.9426771,104.423738 L49.0625787,104.363554 L49.0924374,104.311768 L49.0215229,104.12935 L49.1740824,104.056569 L49.2524616,103.968859 L49.3756289,103.72579 L49.3756289,103.693132 L49.5804412,103.300303 L49.632694,103.286307 L49.691945,103.084294 L50.0581811,102.4316 L50.095038,102.272509 L50.1095008,102.14561 L50.1407592,102.040171 L50.1407592,102.037372 L50.236867,101.939864 L50.3301756,101.927734 L50.7990511,101.939864 L51.0229917,101.886678 L51.4750717,101.633346 L51.7092762,101.544236 L51.7577967,101.56803 L51.8179807,101.71639 L51.8851629,101.749981 L51.9672744,101.735519 L52.0041313,101.700994 L52.0083302,101.700994 L52.0265254,101.672069 L52.0302577,101.668336 L52.1613562,101.560565 L52.2616629,101.380479 L52.3615031,101.347355 L53.7378045,101.451394 L53.7415369,101.451394 L53.7634644,101.402873 L54.0690499,100.960124 L54.1105722,100.81363 L54.1371652,100.426399 L54.1852191,100.288769 L54.2827266,100.191262 L54.4357526,100.157204 L54.576182,100.101685 L54.6960835,99.8376222 L54.6960835,99.8329568 L54.8155185,99.7629754 L55.0534553,99.8292245 L55.2176784,99.9943806 L55.381435,100.117081 L55.6053755,100.061563 L55.6692919,100.32236 L55.8409797,100.410537 L56.2958589,100.456258 L56.884636,100.768842 L57.0306639,100.896208 L57.4878759,101.093089 L58.6854914,100.963857 L59.0209357,101.049701 L59.2187499,100.858885 L59.4128317,100.921868 L59.591051,101.071162 L59.7599396,101.157938 L59.878908,101.150474 L59.9950771,101.127147 L60.102382,101.078626 L60.1868263,101.00118 L60.2889991,100.944728 L60.4158988,100.967589 L60.6650327,101.049701 L61.0900532,101.049701 L61.235148,100.949394 L61.3181927,100.95266 L61.3555161,101.101487 L61.4632875,101.183598 L63.5132767,101.477054 L64.1701691,101.39121 L64.3642509,101.321228 L64.501881,101.171468 L64.5546004,100.896208 L64.5951896,100.832758 L64.6880316,100.861684 L64.7776078,100.963857 L64.8228625,101.101487 L64.795803,101.175201 L64.6805669,101.426667 L64.6390446,101.544236 L64.9077733,101.616084 L65.1097864,101.500381 L65.3066674,101.331959 L65.5502028,101.246115 L65.6579742,101.283439 L65.742885,101.473321 L65.86232,101.544236 L66.0046155,101.5559 L66.1385133,101.536771 L66.2691453,101.497115 L66.3811156,101.435998 L66.3283963,101.619816 L66.3619873,101.8069 L66.4524967,101.981853 L66.6559093,102.302368 L66.7422198,102.564099 L66.8952458,102.90934 L66.9810897,103.043238 L67.0893276,103.14821 L67.2502849,103.230788 L67.5852627,103.230788 L67.6930341,103.300303 L67.6753055,103.527976 L67.5694002,103.834028 L67.5554039,104.047238 L67.6967664,104.102757 L67.9160416,103.904476 L68.2300249,103.72579 L68.5435417,103.688467 L68.7301588,103.867153 L68.7474209,104.243186 L68.6359172,104.677071 L68.6849042,104.874885 L68.808538,105.005051 L68.949434,105.019514 L69.0805325,105.056837 L69.1920362,105.138949 L69.4295066,105.441735 L69.7962092,105.638149 L70.6392522,105.903612 L71.0194846,106.036577 L71.1235236,106.283378 L71.1683117,106.697202 L71.2163657,106.899681 L71.290546,107.048042 L71.3959846,107.185672 L71.5196185,107.301375 L71.6567821,107.391417 L72.5740053,107.812706 L72.8721262,108.077702 L73.1175277,108.39775 L73.2150352,108.479395 L73.8187416,108.767252 L74.0720744,108.958068 L74.236764,109.16568 L74.5008273,109.662081 L74.4005206,109.967667 L74.498028,110.164548 L75.1656508,110.711803 L75.1987754,110.791115 L75.2617587,110.885357 L75.4035877,110.92268 L75.5598795,110.944608 L75.678848,110.992662 L75.7796212,111.18581 L75.8887922,112.017656 L76.1341938,112.588238 L76.1827142,112.886359 L76.0712105,113.196144 L76.1598536,113.286186 L76.2121064,113.405621 L76.2335674,113.553982 L76.2419652,113.744331 L76.3100804,113.840906 L76.4626399,113.953343 L76.6119337,114.105436 L76.6828482,114.335908 L76.7197051,114.38956 L76.9063222,114.482402 L76.9725713,114.530923 L77.0103612,114.642893 L76.931982,114.820646 L76.9725713,114.922819 L77.0584152,114.967607 L77.2413,114.973672 L77.323878,115.019393 L77.3747312,115.097772 L77.4437795,115.246133 L77.4946327,115.316581 L77.568813,115.459343 L77.8855956,116.846375 L78.047486,117.163624 L78.5093634,117.77013 L78.4902351,118.016464 L78.6357965,118.121903 L78.9315847,118.263265 L79.0570847,118.363572 L79.1135364,118.502135 L79.0906758,118.844578 L79.1018728,119.004135 L79.2740271,119.296658 L79.5306257,119.470678 L80.0526871,119.680156 L80.0489548,119.680156 L79.6873841,119.873305 L79.6841183,119.873305 L79.621135,119.982009 L79.6355978,120.139234 L79.7289064,120.251671 L79.8296797,120.338914 L79.8786667,120.418227 L79.9374511,120.939355 L80.0526871,121.442288 L80.4147244,121.920961 L80.6092727,122.241476 L80.6153378,122.471948 L80.5336928,122.732746 L80.6526612,123.008939 L80.8700702,123.247809 L81.085613,123.401768 L81.439719,123.467084 L81.5250964,123.498343 L81.5619532,123.616844 L81.5852804,123.817924 L81.6300685,124.009207 L81.738773,124.090385 L81.9426522,124.132374 L83.1813235,124.757542 L83.4127287,124.996412 L83.50837,125.306196 L83.5209666,125.501211 L83.557357,125.600585 L83.7281117,125.7956 L83.9044649,125.947693 L83.9963738,125.977551 L83.993108,126.051265 L83.9562511,126.147839 L83.949253,126.237416 L84.0304314,126.480484 L84.1204742,126.667568 L84.2399092,126.845788 L84.4223274,127.065529 L84.608478,127.137377 L84.8730078,127.195695 L85.0334985,127.303466 L84.8888703,127.513877 L85.0120376,127.720555 L85.2093852,127.978554 L85.4291269,128.195496 L85.6278741,128.287405 L85.6567998,128.355054 L85.6078128,128.501548 L85.5000414,128.72129 L85.5410972,128.881781 L85.637205,128.961093 L85.7571065,129.026409 L85.8550805,129.153308 L85.8728091,129.287206 L85.8354857,129.596991 L85.8550805,129.735554 L85.9180638,129.750017 L86.0850861,129.892312 L86.2353129,130.052803 L86.2353129,130.130249 L86.5469635,130.193699 L86.7121197,130.343459 L86.8194246,130.531943 L86.9729172,130.712495 L87.0918856,130.78061 L87.3153596,130.850591 L87.4058689,130.905643 L87.4567221,131.025078 L87.4847147,131.1935 L87.5276366,131.338129 L87.6251441,131.39738 L87.8411534,131.741222 L87.9111348,131.801406 L88.359949,131.797673 L88.4383282,131.871387 L88.5642948,132.114456 L88.6137483,132.173707 L88.7541777,132.169508 L89.0191741,132.019748 L89.1759325,131.978692 L89.2990998,132.042608 L89.4521258,132.315069 L89.5300385,132.378986 L89.7465144,132.445235 L90.0007802,132.568402 L90.2503806,132.799807 L90.3502208,133.012084 L90.3502208,133.582666 L90.3133639,133.906913 L90.3208286,134.057607 L90.3950089,134.11919 L90.5890907,134.131321 L90.6893975,134.186839 L90.738851,134.302542 L90.7831726,134.504088 L90.771509,134.566605 L90.7831726,135.092399 L90.7495815,135.264553 L90.6338789,135.589267 L90.597022,135.867793 L90.5298398,136.054877 L90.5144439,136.20417 L90.4696558,136.339001 L90.2657766,136.565741 L90.254113,136.576938 L90.1710684,136.725299 L90.5261075,136.867594 L90.6110183,136.919381 L90.6301465,136.960436 L90.6558064,137.072407 L90.6893975,137.12186 L90.8326261,137.196507 L90.8699495,137.218435 L91.0486354,137.434444 L91.1853325,137.666782 L91.2744422,137.919182 L91.3010351,138.191643 L91.2525147,138.464104 L91.0696299,139.075275 L91.0402377,139.358 L91.0696299,139.421916 L91.1270146,139.502628 L91.1816002,139.604801 L91.2044608,139.734034 L91.1741355,139.857201 L90.9240685,140.316746 L91.1512749,140.633528 L91.2007284,140.711907 L91.3910779,140.867733 L91.5021151,140.912521 L91.6108196,140.917186 L91.7120594,140.941447 L91.7927713,141.054816 L91.8268289,141.210642 L91.8230966,141.499432 L91.8795483,141.655257 L91.9952509,141.774692 L92.4981841,142.181051 L92.6395465,142.366735 L93.0412399,142.863603 L93.2255244,143.097341 L93.4368683,143.318016 L93.6206862,143.555953 L93.8003051,144.16899 L93.9598628,144.841745 L94.4674614,146.330483 L94.5038518,146.558156 L94.5929614,147.25797 L94.6713406,147.587816 L94.9741269,147.712849 L95.3021066,147.795894 L95.4541995,147.98531 L95.6002274,148.380939 L95.6263538,148.560091 L95.5699022,148.720582 L95.4625973,148.899268 L95.3804858,149.077954 L95.4094114,149.233779 L95.6748743,149.451655 L95.91701,149.488045 L96.1512145,149.459586 L96.401748,149.468917 L96.4647313,149.509972 L96.5468429,149.633606 L96.6214897,149.659266 L96.7036013,149.644803 L96.9205437,149.554294 L97.2265958,149.562692 L97.3348337,149.642004 L97.4463375,149.861746 L97.6404193,149.666731 L98.105096,150.006374 L98.3929529,149.947123 L98.5161202,150.029235 L98.6378879,150.062826 L98.7465924,150.035766 L98.8249716,149.950855 L98.8249716,149.947123 L98.9668006,150.029235 L99.0624419,149.998909 L99.1492189,149.943391 L99.2649215,149.947123 L99.3316371,150.002642 L99.5219866,150.233114 L99.9591372,150.51024 L100.088836,150.677263 L100.039383,150.911934 L100.21247,150.897471 L100.376693,150.911934 L100.525054,150.972118 L100.651953,151.094352 L100.492396,151.284701 L100.515256,151.357016 L100.629093,151.370545 L100.730333,151.400404 L100.987864,151.650938 L101.129227,151.741447 L101.294383,151.774105 L102.039452,151.486248 L102.404288,151.684062 L102.79945,151.784369 L103.158688,151.930863 L103.419019,152.250912 L103.583242,152.0447 L103.619632,151.998512 L103.96674,152.113281 L104.3703,152.344687 L104.719274,152.444993 L104.618501,152.729118 L104.618501,152.870481 L104.764062,152.919468 L105.099506,152.921334 L105.177886,153.019774 L105.47414,153.462523 L105.58891,153.601087 L106.572849,154.10402 L107.045923,154.246315 L107.486806,154.268243 L108.082581,154.107752 L108.331715,154.167936 L108.437154,154.50618 L108.556589,154.566364 L108.824384,154.477721 L109.220013,154.268243 L109.394033,154.256113 L110.122307,154.361085 L110.923827,154.268243 L111.885372,154.268243 L112.133106,154.338224 L112.157833,154.554234 L112.329054,154.602754 L113.428696,154.674602 L113.678763,154.73012 L113.911101,154.843024 L114.147638,155.032907 L114.271739,155.213925 L114.375778,155.438332 L114.506876,155.627749 L114.874979,155.789173 L115.441828,156.374217 L115.669501,156.528176 L115.871048,156.612621 L116.084258,156.649944 L116.352986,156.661141 L116.437897,156.761448 L116.507878,156.981656 L116.638977,157.183203 L116.907706,157.23219 L116.960892,157.183203 L116.963691,157.17947 L116.966024,157.098292 L116.99075,157.030177 L117.090124,157.033909 L117.172236,157.104823 L117.214224,157.206063 L117.266011,157.295173 L117.392444,157.335296 L117.64531,157.220526 L117.653241,156.948998 L117.564131,156.631749 L117.527741,156.374217 L117.578594,156.296305 L117.865518,156.086827 L118.086193,156.243585 L118.380581,156.154476 L118.451496,156.086827 L118.611054,155.934734 L118.648377,155.707061 L118.816799,155.666005 L119.424704,155.707061 L120.264015,155.63568 L120.285942,155.515778 L120.244887,154.891544 L120.214561,154.49125 L120.107257,154.111484 L119.9421,154.084892 L119.809136,154.171668 L119.756416,154.375548 L119.730756,154.629814 L119.686435,154.850488 L119.592193,154.999782 L119.476491,155.087492 L119.166706,155.230254 L119.095792,155.300702 L119.077596,155.364152 L119.041206,155.379081 L118.906375,155.315165 L118.842459,155.259646 L118.793938,155.172869 L118.734687,154.942397 L118.742152,154.752048 L118.891446,154.417537 L118.906375,154.171668 L119.085528,154.252847 L119.218959,154.222522 L119.301537,154.093289 L119.346325,153.883812 L119.197965,153.820828 L119.037474,153.787237 L118.694098,153.779773 L118.538273,153.754113 L118.417905,153.690663 L118.329262,153.626746 L118.257414,153.601087 L118.101589,153.43733 L118.041405,153.059897 L118.060533,152.642341 L118.123516,152.348419 L117.94483,152.060096 L117.884646,151.937395 L117.865518,151.774105 L117.911239,151.658402 L117.992418,151.560895 L118.033474,151.45359 L117.95836,151.296831 L117.85852,151.218452 L117.772676,151.224517 L117.684033,151.270239 L117.56833,151.296831 L117.462892,151.162934 L117.462892,150.866679 L117.537539,150.569491 L117.653241,150.435593 L117.727888,150.379142 L117.671436,150.27137 L117.578594,150.208854 L117.527741,150.2835 L117.499282,150.331554 L117.437232,150.397337 L117.348122,150.447257 L117.262278,150.435593 L117.239418,150.345551 L117.350921,150.062826 L117.348122,149.947123 L117.26881,149.920064 L116.998215,149.895337 L116.907706,149.861746 L116.837724,149.686792 L116.821395,149.496909 L116.755613,149.345749 L116.52794,149.287431 L116.367449,149.275768 L116.333858,149.223515 L116.367449,149.09335 L116.404773,148.697721 L116.471488,148.489177 L116.485951,148.36181 L116.052999,148.216716 L116.39031,148.116409 L116.504146,148.018901 L116.572728,147.833217 L116.606319,147.906931 L116.692629,148.031032 L116.735551,148.127606 L116.657172,147.668994 L116.374914,146.732176 L116.243815,145.809355 L115.941029,144.905195 L115.857051,144.290291 L115.796401,144.056087 L115.693295,143.846609 L115.535603,143.698248 L115.334057,143.631533 L115.159103,143.6278 L115.018207,143.586744 L114.924899,143.407592 L114.9207,143.216776 L114.949625,142.933584 L115.010743,142.671854 L115.098453,142.535157 L115.234683,142.594408 L115.796401,143.119269 L115.945694,142.847741 L115.779139,142.664856 L115.278538,142.437649 L115.13391,142.270161 L115.021473,142.069547 L114.949625,141.818081 L114.916034,141.210642 L114.939828,141.054816 L115.073726,140.994632 L115.779139,140.946112 L115.953159,140.812214 L115.949427,140.57801 L115.796401,140.222504 L115.941029,140.077876 L115.857051,139.880062 L115.733417,139.705108 L115.74788,139.631394 L115.945694,139.609467 L116.139776,139.536686 L116.299334,139.421916 L116.393109,139.249296 L116.359518,139.071076 L116.270875,138.847602 L116.237284,138.658186 L116.352986,138.578874 L116.404773,138.467836 L116.423901,138.220569 L116.419702,137.960238 L116.393109,137.807212 L116.542403,137.747028 L116.628247,137.594002 L116.643642,137.401319 L116.572728,137.218435 L115.733417,137.481565 L115.490815,137.650453 L115.252412,137.758691 L114.939828,137.75076 L114.312794,137.601933 L114.036601,137.489963 L113.846252,137.363996 L113.640973,137.258557 L113.325123,137.218435 L112.702755,137.26229 L112.418164,137.184844 L112.244143,136.919381 L112.552062,136.926845 L112.851116,136.99776 L113.15017,137.027152 L113.452489,136.919381 L113.592919,136.737429 L113.533668,136.588602 L113.347984,136.531217 L113.096517,136.641788 L113.068058,136.588602 L113.047997,136.546613 L113.030735,136.446773 L113.2878,136.315208 L113.134774,136.024551 L112.676162,135.566406 L112.854848,135.566406 L112.724683,135.274817 L112.291731,134.842798 L112.244143,134.504088 L112.642571,134.772817 L112.95982,135.085401 L113.970352,136.543347 L114.010941,136.674446 L114.014674,136.79668 L114.063194,136.886723 L114.230683,136.919381 L114.369246,136.894187 L114.439228,136.826539 L114.451358,136.733697 L114.410302,136.641788 L114.641707,136.297012 L114.760209,136.245226 L114.838588,136.446773 L115.040135,136.270886 L115.139975,136.207903 L115.278538,136.155183 L115.184763,135.961102 L115.341521,135.867793 L115.631244,135.580869 L115.87478,135.473564 L115.818795,135.737628 L115.796401,136.010089 L115.841655,136.175245 L115.945694,136.223299 L116.035737,136.20417 L116.052999,136.155183 L116.143509,136.225165 L116.202759,136.241494 L116.19996,136.270886 L116.09872,136.393587 L116.010544,136.44304 L115.87478,136.460302 L115.625646,136.446773 L115.669501,136.502291 L115.693295,136.551278 L115.725953,136.596066 L115.796401,136.641788 L115.642908,136.78175 L115.184763,137.02342 L115.423633,137.191842 L115.603252,137.136323 L115.87478,136.831204 L116.692629,136.493894 L116.829327,136.393587 L116.867116,136.076804 L117.388245,134.616059 L117.564131,134.402849 L117.60612,134.256821 L117.649509,133.979228 L117.865518,133.355926 L118.250883,132.632318 L118.294738,132.516616 L118.329262,132.203099 L118.368451,132.046341 L118.432368,131.930638 L118.582595,131.741222 L118.705762,131.516814 L118.746818,131.293807 L118.648377,131.110456 L117.527741,130.631316 L117.329927,130.440034 L117.003814,130.033675 L117.090124,129.929636 L117.045336,129.780342 L117.153107,129.377249 L117.090124,129.153308 L116.994483,129.279742 L116.848455,129.342725 L116.692629,129.340859 L116.572728,129.257814 L116.165436,129.351123 L115.871048,129.303535 L115.647573,129.10852 L115.441828,128.766078 L115.651306,128.683966 L115.704025,128.675569 L115.808064,128.705894 L115.845388,128.770277 L115.857051,128.828595 L115.87478,128.862652 L115.945694,128.885513 L116.047867,128.937299 L116.139776,128.961093 L116.210691,128.941031 L116.243815,128.809466 L116.315663,128.766078 L116.66557,128.735753 L117.374249,128.763279 L117.702695,128.675569 L117.664438,128.770277 L117.64531,128.828595 L117.615918,128.881781 L117.527741,128.961093 L117.839392,128.937299 L118.351189,128.713825 L118.648377,128.675569 L118.86252,128.743217 L119.044938,128.896243 L119.205896,129.10852 L119.346325,129.34739 L119.08926,129.34739 L119.08926,129.451896 L119.416307,129.495751 L119.701831,129.283474 L120.691368,127.856786 L121.157911,127.017475 L121.169575,127.060864 L121.173307,127.10192 L121.18777,127.121048 L121.251686,127.11405 L121.460231,126.689496 L121.546075,126.57286 L121.677173,126.438496 L121.706565,126.37318 L121.691636,126.28267 L121.677173,126.085323 L121.757419,125.533869 L121.717296,125.369646 L121.58713,125.257676 L121.497554,125.302464 L121.448567,125.328124 L121.438303,125.344453 L121.455565,125.387375 L121.500353,125.45549 L121.299274,125.697159 L120.684837,125.951425 L120.553738,126.186096 L120.531811,126.369447 L120.467894,126.558864 L120.38345,126.721221 L120.285942,126.824327 L120.140848,126.882644 L120.14458,126.815929 L120.199165,126.679232 L120.199165,126.531804 L120.076931,126.327458 L119.897779,126.1707 L119.666374,126.071326 L119.387381,126.036802 L119.276344,125.899172 L119.512881,125.580523 L120.035409,125.056596 L119.834796,124.992679 L119.782076,124.853183 L119.834796,124.699224 L119.9421,124.579789 L120.095126,124.54993 L120.273812,124.604516 L120.37132,124.712754 L120.285942,124.861581 L120.63305,124.773871 L121.121521,124.568125 L121.568002,124.287267 L121.769082,123.984947 L121.847461,123.984947 L121.930506,124.191625 L121.859591,124.623644 L121.941236,124.773871 L121.900647,124.843386 L121.859591,124.895172 L121.817603,124.936228 L121.769082,124.967019 L122.220229,125.115847 L122.361592,125.056596 L122.538411,124.773871 L122.671376,124.481348 L122.739491,124.236413 L122.704034,124.037666 L122.538411,123.889306 L122.835599,123.422763 L123.007753,123.210952 L123.157047,123.207686 L123.175242,123.418097 L123.047876,123.654168 L122.973696,123.9117 L123.157047,124.179962 L122.977428,124.411367 L122.861726,124.642772 L122.717097,125.159235 L122.930307,125.063594 L123.339465,124.956289 L123.536813,124.816793 L123.980962,124.208887 L124.189506,123.984947 L124.643919,123.703155 L124.774551,123.52027 L124.531949,122.983279 L124.585135,122.72808 L124.708769,122.484078 L124.786215,122.233545 L124.60333,121.879905 L124.229629,121.431558 L123.98796,121.036863 L124.189506,120.850245 L124.36446,120.94682 L124.624791,121.140902 L124.864594,121.252872 L124.968633,121.107311 L124.932243,120.883837 L124.833802,120.723346 L124.52915,120.466747 L124.413447,120.519467 L124.382655,120.429424 L124.419979,120.291794 L124.52915,120.182156 L124.633189,120.119639 L124.741427,120.224145 L124.968633,120.574985 L125.024152,120.626771 L125.166447,120.705151 L125.225698,120.761136 L125.249958,120.854911 L125.259289,120.988809 L125.285416,121.107311 L125.353064,121.16003 L125.579804,121.181957 L125.695507,121.260337 L125.736563,121.425026 L125.763155,121.947088 L125.833137,122.173361 L125.967968,122.296995 L126.172314,122.233545 L126.396254,122.409432 L127.771622,121.63637 L127.969903,121.577586 L128.399123,121.309324 L128.644524,121.24914 L129.550084,120.761136 L129.513693,120.421959 L129.152123,120.098645 L128.67065,119.922758 L128.293684,120.02913 L128.156987,120.144833 L127.940044,120.264268 L127.738498,120.268933 L127.648455,120.02913 L127.760425,120.004403 L128.424782,119.680156 L128.320743,119.41516 L128.254494,119.302256 L128.163985,119.19915 L128.08234,119.127303 L127.820609,119.004135 L127.451574,118.751736 L127.303213,118.702282 L127.176314,118.833847 L127.078806,118.851109 L126.966836,118.702282 L126.966836,118.59871 L127.037751,118.254868 L127.045215,118.106507 L127.011624,117.961879 L126.962171,117.859706 L126.605265,117.375901 L126.497494,117.151494 L126.445708,116.898161 L126.433578,116.541256 L126.579605,116.621968 L126.638856,116.671421 L126.691576,116.745135 L126.855799,116.652293 L127.02702,116.629432 L127.194509,116.678886 L127.346602,116.794588 L127.451574,116.928486 L127.489831,117.017596 L127.507093,117.1263 L127.559812,117.323648 L127.581739,117.436085 L127.578474,117.532659 L127.586405,117.621769 L127.648455,117.725808 L127.709572,117.747736 L127.87986,117.742137 L127.954507,117.778527 L128.088405,117.823315 L128.242364,117.778527 L128.372063,117.758466 L128.424782,117.875102 L128.532087,118.218477 L129.006095,117.889565 L129.114333,118.158293 L129.03642,118.437286 L128.846537,118.494671 L128.618864,118.52033 L128.424782,118.702282 L128.812946,118.640699 L129.25103,118.464812 L129.983035,118.016464 L129.557548,117.889565 L129.386327,117.774795 L129.42785,117.573248 L129.471705,117.449615 L129.438113,117.341843 L129.394258,117.242003 L129.386327,117.130499 L129.434381,117.069382 L129.516493,117.013864 L129.594872,116.931752 L129.628463,116.794588 L129.591139,116.682152 L129.494565,116.726007 L129.386327,116.816983 L129.293019,116.846375 L129.207641,116.730672 L129.114333,116.515596 L129.048084,116.26133 L129.03642,116.051852 L129.114333,116.051852 L129.159121,116.17222 L129.386327,116.541256 L129.434381,116.484804 L129.553816,116.41249 L129.628463,116.346241 L129.811814,116.53659 L129.882729,116.756332 L129.853337,116.96581 L129.72597,117.130499 L129.788954,117.263464 L130.15519,117.625501 L130.228904,117.766864 L130.233569,117.863438 L130.284422,117.89423 L130.500432,117.830314 L130.763095,117.669356 L131.098073,117.256466 L131.362603,117.130499 L131.284223,117.323648 L131.563683,117.144496 L131.736303,117.069382 L131.933651,117.039523 L132.190716,117.046988 L132.27656,117.098774 L132.223841,117.242003 L131.933651,117.713678 L131.869268,117.871369 L131.933651,117.979141 L132.190716,118.016464 L132.362871,117.989871 L132.526161,117.934353 L132.708579,117.897962 L132.921789,117.920823 L132.921789,118.016464 L132.842477,118.016464 L132.645596,118.183953 L132.068015,118.247869 L131.843608,118.363572 L131.792755,118.582381 L132.06335,118.590312 L132.663791,118.416291 L133.409326,118.065451 L133.665925,118.016464 L133.835746,117.949749 L134.319551,117.669356 L134.568219,117.625501 L134.808022,117.754734 L134.886401,117.989871 L134.84068,118.210546 L134.703983,118.311786 L134.434321,118.368237 L132.619003,119.296658 L132.194449,119.608308 L131.88933,119.982009 L132.27656,119.806123 L133.088345,119.302256 L133.815685,119.06152 L134.587347,118.448949 L135.885736,118.14383 L136.708717,117.733739 L138.196522,116.745135 L137.745375,116.790856 L137.26157,116.97654 L135.527897,117.968877 L135.489641,118.0062 L135.408462,118.03186 L135.318886,118.039791 L135.258702,118.016464 L135.206916,117.931553 L135.221379,117.878834 L135.254503,117.823315 L135.269899,117.584446 L135.318886,117.449615 L135.337081,117.30452 L135.258702,117.130499 L136.960184,116.503932 L137.428593,116.453546 L138.014571,116.489003 L138.580487,116.447014 L139.13614,116.308917 L139.680129,116.051852 L141.127344,115.108503 L141.988116,114.497332 L142.208791,114.411488 L142.491982,114.377897 L142.637077,114.284121 L143.314964,113.692545 L143.999382,112.927881 L144.355354,112.729601 L145.273044,112.005993 L145.369619,111.824508 L145.393412,111.629493 L145.385014,111.385491 L145.285174,110.784117 L145.270245,110.474333 L145.385014,110.153351 L145.22499,109.780583 L145.128416,109.662081 L145.347691,109.776384 L145.550171,109.802511 L145.712528,109.88089 L145.817966,110.153351 L146.165074,109.952271 L146.459463,109.727864 L147.290375,108.767252 L147.29784,108.726663 L147.283377,108.61096 L147.290375,108.569905 L147.327232,108.561507 L147.43547,108.579702 L147.472794,108.569905 L147.729859,108.379089 L147.845561,108.26012 L147.902013,108.077702 L147.98879,108.077702 L148.188004,108.240992 L148.383019,108.125289 L148.528114,107.850029 L148.583632,107.536512 L148.683939,107.251921 L148.920943,107.181007 L149.184073,107.251921 L149.374422,107.391417 L149.411746,107.331233 L149.448136,107.309306 L149.490125,107.297642 L149.543311,107.283179 L148.976461,107.025181 L148.812238,106.995323 L148.676474,106.895016 L148.3275,106.299707 L148.315837,106.328166 L148.312104,106.372954 L148.296708,106.379953 L148.267316,106.379953 L148.267316,106.417276 L148.271048,106.444802 L148.3275,106.494722 L148.3275,106.600627 L148.00232,106.589897 L147.951,106.395815 L147.935604,106.156945 L147.723327,106.000187 L147.723327,105.903612 L147.905745,105.843428 L148.085364,105.754319 L148.233725,105.612956 L148.3275,105.41141 L147.390682,105.123553 L146.976392,104.855757 L147.078098,104.468527 L147.212463,104.32903 L147.402812,104.076631 L147.472794,103.834028 L147.055704,103.618019 L146.984323,103.371218 L147.05897,103.106221 L147.290375,102.935 L147.234857,102.800636 L147.155545,102.74605 L147.043574,102.734387 L146.905944,102.737186 L146.772979,102.704061 L146.663808,102.622416 L146.473459,102.387279 L146.534109,102.320563 L147.290375,102.343424 L147.688803,102.585093 L148.069502,102.932201 L148.452534,103.11042 L148.860759,102.835627 L149.060906,102.346223 L149.19527,101.886678 L149.291844,101.749981 L149.515785,101.621682 L149.970664,101.435998 L150.262253,101.273641 L150.365826,101.246115 L150.466133,101.310031 L150.519785,101.583426 L150.627556,101.641743 L150.862694,101.700994 L150.918213,101.85682 L150.921945,102.08076 L151.014787,102.343424 L150.907016,102.65974 L150.750257,103.348357 L150.575304,103.870419 L150.347631,104.345359 L150.18714,104.565101 L150.056041,104.625285 L149.877355,104.651411 L149.73646,104.699932 L149.713599,104.818434 L149.808307,104.9458 L149.93754,105.001318 L150.090566,105.015781 L150.746991,104.919207 L152.592168,104.375218 L152.819841,104.386415 L153.020455,104.474592 L153.222468,104.662608 L153.468802,104.759183 L153.657286,104.616887 L153.773921,104.509582 L153.781386,104.710662 L153.699274,104.970527 L153.54065,105.090895 L153.318109,105.117021 L152.68501,105.082497 L152.573973,105.117021 L152.428878,105.209397 L152.048179,105.609224 L151.954404,105.672207 L151.824705,105.731458 L151.681943,105.77578 L151.383822,105.829899 L151.055843,106.000187 L150.035047,107.003254 L149.926809,107.197336 L149.982328,107.334966 L150.275783,107.391417 L150.535647,107.271982 L151.186008,106.494722 L151.648819,106.160677 L155.67555,104.333696 L157.182017,103.766846 L158.248067,103.167339 L158.621768,102.99845 L159.149895,102.835627 L159.434486,102.805301 L160.962413,102.835627 L161.335181,102.942931 L161.480743,102.935 L161.67949,102.682601 L161.477477,102.235186 L160.791192,101.435998 L160.493071,100.90274 L160.588713,100.382544 L161.581049,98.9535235 L161.704217,98.6894603 L161.753204,98.425397 L161.902031,98.3558822 L162.23001,98.3460848 L162.480544,98.3712781 L162.480544,98.3675457 L162.737609,97.913133 L163.479412,97.0700901 L163.382838,96.8960696 L163.404765,96.7603056 L163.563856,96.4752479 L163.647834,96.143536 L163.639436,95.9111976 L163.594182,95.702653 L163.563856,95.4343909 L163.539596,95.3378165 L163.416429,95.1246064 L163.386104,94.9799781 L163.408031,94.814822 L163.527466,94.5278981 L163.563856,94.3828033 L163.505539,94.0529575 L163.322654,93.846279 L163.131371,93.6675931 L163.042728,93.4445856 L162.994674,92.801223 L163.034797,92.5222304 L163.213949,92.1951839 L163.519535,91.8144849 L163.617042,91.6166708 L163.651566,91.3442097 L163.636171,91.2285071 L163.479412,90.791823 L163.490143,90.7764271 L163.479412,90.4941687 L163.445354,90.427453 L163.345514,90.3598043 L163.307258,90.2860906 L163.311457,89.9982336 L163.423894,89.7411685 L163.617042,89.5582837 L163.86291,89.4869027 L163.889503,89.3348097 L164.072388,88.6102687 L164.175494,88.3844619 L164.609379,88.0373541 L164.731147,87.8269432 L164.833319,87.1308613 L165.291465,86.2859522 L165.361913,86.0428834 L165.381041,85.9122514 L165.38384,85.7363647 L165.370777,85.5735413 L165.306394,85.2936156 L165.291465,85.1331248 L165.339052,84.9791657 L165.451022,84.8564649 L165.645104,84.6857103 L165.723483,84.5317511 L165.741678,84.4683013 L165.645104,84.2774853 L165.552262,84.1701804 L165.350715,83.8538644 L165.242478,83.5221524 L165.429095,83.3681933 L165.543864,83.3509312 L165.887706,83.2440929 L165.988013,83.1759776 L166.037,83.0294832 L165.984281,82.9207787 Z M149.468197,107.570103 L149.452801,107.487059 L149.404748,107.480061 L149.386552,107.499189 L149.374422,107.585499 L149.374422,107.487059 L149.362759,107.529048 L149.362759,107.570103 L149.344564,107.595763 L149.282513,107.585499 L149.282513,107.684873 L149.501322,107.722196 L149.534913,107.901815 L149.452801,108.095897 L149.329168,108.185007 L149.303508,108.199936 L149.023582,108.276449 L148.964331,108.350163 L148.860759,108.569905 L148.3275,108.995392 L148.281779,109.060708 L148.092363,109.069106 L147.943069,109.110161 L147.849294,109.2142 L147.816169,109.412481 L147.666875,109.619626 L146.728191,110.201872 L146.208929,110.653485 L145.970992,110.917082 L145.817966,111.231532 L145.902877,111.231532 L146.120752,110.947874 L147.943069,109.646686 L148.509918,109.434409 L150.411547,107.871957 L149.627755,107.585499 L149.468197,107.570103 Z M130.698246,120.421959 L129.983035,121.052725 L129.983035,121.16003 L130.228904,121.133437 L130.437448,120.988809 L130.759363,120.664095 L131.069147,120.578717 L131.165722,120.443887 L131.433517,120.243273 L131.533824,120.182156 L131.524027,120.148565 L131.563683,120.112175 L131.615935,120.090247 L131.716242,120.078584 L131.716242,119.982009 L131.176452,120.135035 L130.698246,120.421959 Z M129.506229,121.313056 L129.446045,121.293928 L129.363467,121.327519 L129.25103,121.354112 L129.204842,121.417095 L129.214639,121.719415 L129.207641,121.834184 L129.054615,122.095915 L128.901123,122.173361 L128.424782,122.12484 L128.148589,122.161231 L127.985766,122.256406 L127.726834,122.525134 L127.142723,122.789197 L127.045215,122.863844 L126.922981,123.008939 L126.390189,123.29493 L126.269821,123.546397 L126.164849,123.633173 L125.680111,123.922897 L125.53175,123.984947 L125.327404,124.015739 L124.919179,124.149636 L124.662581,124.179962 L124.45077,124.287267 L124.394319,124.5378 L124.435375,124.805596 L124.52915,124.967019 L124.52915,125.056596 L124.382655,125.201224 L124.241293,125.432629 L124.13772,125.697159 L124.096664,125.947693 L124.189506,125.947693 L124.287014,125.704157 L124.438174,125.492813 L124.786215,125.159235 L125.461302,124.660967 L125.778551,124.318525 L126.966836,123.691491 L127.660119,123.09525 L128.05668,122.834919 L128.470504,122.72808 L129.386327,122.274601 L129.408721,122.21535 L129.516493,122.050194 L129.550084,121.939156 L129.561281,121.819721 L129.550084,121.442288 L129.506229,121.313056 Z M123.856861,125.100917 L123.696371,125.030003 L123.536813,125.108382 L123.443038,125.26514 L123.376789,125.406503 L123.282547,125.510075 L123.108527,125.551131 L122.369523,126.819661 L122.369523,126.890576 L122.612125,126.957291 L122.616791,127.044535 L122.538411,127.204092 L122.477294,127.292736 L122.10546,127.696295 L121.645448,128.375115 L121.478426,128.807134 L121.58713,129.063732 L121.661777,128.788005 L121.840463,128.512745 L122.285079,127.986018 L122.801541,127.204092 L123.917979,125.947693 L123.955302,125.816127 L123.973497,125.496546 L124.009887,125.35425 L123.977229,125.235748 L123.856861,125.100917 Z M121.169575,129.225156 L121.072067,129.596991 L120.990889,129.746284 L120.460896,130.238487 L120.114255,130.660242 L119.424704,132.173707 L119.346325,132.173707 L119.25255,132.019748 L119.111188,131.917108 L118.813067,131.797673 L118.871385,132.019748 L118.942766,132.181172 L118.928769,132.315069 L118.734687,132.464363 L118.775743,132.744289 L118.549003,133.117056 L118.264879,133.493557 L118.123516,133.776748 L118.097857,133.941438 L117.865518,134.406581 L117.809066,134.601596 L117.702695,135.183841 L117.314531,136.099198 L117.102721,137.657451 L117.003814,137.893522 L117.120449,137.96397 L117.209559,137.922914 L117.348122,137.69944 L117.552934,137.224966 L117.817464,136.054877 L118.560667,134.059006 L119.733556,131.781344 L121.330998,129.451896 L121.467695,129.303535 L121.359924,129.176169 L121.169575,129.225156 Z M117.601455,145.383867 L117.759146,145.994106 L117.865518,146.289427 L118.007814,146.524565 L118.066132,146.658463 L118.215425,147.448786 L118.335793,147.748307 L118.634847,148.291362 L118.734687,148.608612 L118.87605,149.689125 L118.991753,150.051162 L119.211494,150.416465 L119.305269,150.646937 L119.553937,153.522707 L119.647712,153.768109 L119.763881,153.846955 L119.863721,153.601087 L119.856723,153.358018 L119.723758,152.609683 L119.539474,152.184196 L119.509615,151.900071 L119.517546,151.296831 L119.470426,150.978649 L119.28894,150.4118 L119.182102,149.573422 L119.104656,149.264571 L118.991753,149.084952 L119.010881,148.918396 L117.694297,144.552022 L117.273475,142.086343 L117.176901,138.470636 L117.262278,138.191643 L117.079393,138.399255 L117.008012,139.064545 L116.907706,139.358 L117.008012,139.611333 L116.998215,139.876329 L116.907706,140.409588 L116.933366,140.689047 L117.049068,141.20411 L117.153107,142.527226 L117.123715,143.019895 L117.003814,143.504166 L117.381713,144.062618 L117.433499,144.174588 L117.452628,144.23104 L117.515611,144.34301 L117.527741,144.42139 L117.499282,144.470843 L117.374249,144.503501 L117.348122,144.55902 L117.362585,144.673789 L117.392444,144.775962 L117.444697,144.864605 L117.527741,144.947183 L117.433499,145.050289 L117.601455,145.383867 Z" id="Fill-3"></path>
                        </g>
                    </g>
                </g>
            </g>
        </g>
    </g>
</svg>